HIERARCHY
ROOT root
{
	OFFSET 0.000000 0.000000 0.000000
	CHANNELS 6 Xposition Yposition Zposition Zrotation Yrotation Xrotation
	JOINT lhip
	{
		OFFSET 0.058581 -0.082280 -0.017664
		CHANNELS 3 Zrotation Yrotation Xrotation
		JOINT lknee
		{
			OFFSET 0.043451 -0.386469 0.008037
			CHANNELS 3 Zrotation Yrotation Xrotation
			JOINT lankle
			{
				OFFSET -0.014790 -0.426874 -0.037428
				CHANNELS 3 Zrotation Yrotation Xrotation
				JOINT ltoe
				{
					OFFSET 0.041054 -0.060286 0.122042
					CHANNELS 3 Zrotation Yrotation Xrotation
					End Site
					{
						OFFSET 0.000000 0.000000 0.000000
					}
				}
			}
		}
	}
	JOINT rhip
	{
		OFFSET -0.060310 -0.090513 -0.013543
		CHANNELS 3 Zrotation Yrotation Xrotation
		JOINT rknee
		{
			OFFSET -0.043257 -0.383688 -0.004843
			CHANNELS 3 Zrotation Yrotation Xrotation
			JOINT rankle
			{
				OFFSET 0.019056 -0.420046 -0.034562
				CHANNELS 3 Zrotation Yrotation Xrotation
				JOINT rtoe
				{
					OFFSET -0.034840 -0.062106 0.130323
					CHANNELS 3 Zrotation Yrotation Xrotation
					End Site
					{
						OFFSET 0.000000 0.000000 0.000000
					}
				}
			}
		}
	}
	JOINT lowerback
	{
		OFFSET 0.004439 0.124404 -0.038385
		CHANNELS 3 Zrotation Yrotation Xrotation
		JOINT upperback
		{
			OFFSET 0.004488 0.137956 0.026820
			CHANNELS 3 Zrotation Yrotation Xrotation
			JOINT chest
			{
				OFFSET -0.002265 0.056032 0.002855
				CHANNELS 3 Zrotation Yrotation Xrotation
				JOINT lowerneck
				{
					OFFSET -0.013390 0.211636 -0.033468
					CHANNELS 3 Zrotation Yrotation Xrotation
					JOINT upperneck
					{
						OFFSET 0.010113 0.088937 0.050410
						CHANNELS 3 Zrotation Yrotation Xrotation
						End Site
						{
							OFFSET 0.000000 0.000000 0.000000
						}
					}
				}
				JOINT lclavicle
				{
					OFFSET 0.071702 0.114000 -0.018898
					CHANNELS 3 Zrotation Yrotation Xrotation
					JOINT lshoulder
					{
						OFFSET 0.122921 0.045205 -0.019046
						CHANNELS 3 Zrotation Yrotation Xrotation
						JOINT lelbow
						{
							OFFSET 0.255332 -0.015649 -0.022946
							CHANNELS 3 Zrotation Yrotation Xrotation
							JOINT lwrist
							{
								OFFSET 0.265709 0.012698 -0.007375
								CHANNELS 3 Zrotation Yrotation Xrotation
								End Site
								{
									OFFSET 0.000000 0.000000 0.000000
								}
							}
						}
					}
				}
				JOINT rclavicle
				{
					OFFSET -0.082954 0.112472 -0.023707
					CHANNELS 3 Zrotation Yrotation Xrotation
					JOINT rshoulder
					{
						OFFSET -0.113228 0.046853 -0.008472
						CHANNELS 3 Zrotation Yrotation Xrotation
						JOINT relbow
						{
							OFFSET -0.260127 -0.014369 -0.031269
							CHANNELS 3 Zrotation Yrotation Xrotation
							JOINT rwrist
							{
								OFFSET -0.269108 0.006794 -0.006027
								CHANNELS 3 Zrotation Yrotation Xrotation
								End Site
								{
									OFFSET 0.000000 0.000000 0.000000
								}
							}
						}
					}
				}
			}
		}
	}
}
MOTION
Frames: 11
Frame Time: 0.033333
-1.947010 0.218006 1.019762 -169.885588 -6.924197 85.436546 4.516697 4.214687 -10.489403 -2.079548 2.086099 12.896656 0.918741 17.023183 -5.373717 0.000000 -0.000000 0.000000 -2.455023 -6.681004 3.272892 -2.037795 4.505104 3.360255 -1.132496 -14.354768 -4.409532 0.000000 -0.000000 0.000000 -2.473408 2.503899 5.893654 3.949654 -8.922949 -1.025560 3.549111 0.781142 -4.917943 0.380580 -6.712821 -4.995631 6.421362 -3.204481 14.489244 -4.733427 -29.083768 -5.531056 -12.691673 -38.045437 -4.702514 1.798594 -11.259183 3.794887 -5.466529 -12.741599 13.472812 7.376947 29.652122 -2.648688 4.221683 33.136481 -14.784885 -6.290748 17.089618 -7.610549 3.286139 7.215401 18.837681 
-1.948773 0.234429 1.020006 -170.972857 -6.740068 85.174660 3.979245 3.383876 -12.355844 -1.650027 0.590892 10.037533 0.768669 16.546097 -5.985696 0.000000 -0.000000 0.000000 -2.605251 -6.999067 4.535845 -1.611426 4.825018 3.892910 -0.572873 -14.213220 -5.451619 0.000000 -0.000000 0.000000 -2.369999 2.522682 5.703045 4.096073 -9.611047 -0.788086 3.648094 1.404675 -4.400675 0.212170 -6.522766 -5.340076 6.812155 -2.896141 14.178299 -4.674250 -29.171390 -5.885161 -12.698676 -37.539030 -4.760522 1.815055 -11.153091 4.249446 -5.370829 -13.150609 13.305329 7.614475 30.197871 -2.938741 3.918234 33.052974 -14.721728 -6.303604 16.826575 -7.277435 3.310705 7.618933 18.971181 
-1.950514 0.249952 1.020864 -172.524484 -6.502936 85.110818 3.612896 2.632607 -14.063512 -1.504586 -0.813176 7.209387 0.774613 15.699763 -5.969533 0.000000 -0.000000 0.000000 -2.291832 -6.986566 5.262328 -1.717536 5.420346 4.736486 -0.194609 -14.008684 -5.244451 0.000000 -0.000000 0.000000 -2.077385 3.148788 6.067141 3.972337 -9.558418 -0.955990 3.698095 1.442475 -4.624927 0.253962 -6.574573 -5.498264 7.053778 -2.951090 14.326101 -4.829912 -29.391569 -5.789676 -12.733764 -37.107859 -4.603213 1.730256 -11.239354 4.105718 -5.388956 -13.526795 13.133031 7.500722 30.358573 -2.656273 4.183505 32.807011 -14.613989 -6.619426 16.554378 -7.213739 3.384663 7.805135 18.736419 
-1.952665 0.266070 1.021813 -173.961434 -6.270447 84.921363 3.174302 1.800509 -15.374562 -0.980254 -2.698797 4.805298 0.806140 14.901430 -6.368816 0.000000 -0.000000 0.000000 -2.368487 -7.023288 6.494092 -1.593313 6.264561 4.931178 0.303495 -13.684291 -4.888531 0.000000 -0.000000 0.000000 -1.829643 3.466721 6.652241 3.911271 -9.496596 -1.452141 3.600478 1.525077 -4.597571 0.244566 -6.842740 -6.079443 7.013735 -3.033172 15.166722 -5.157237 -28.964239 -6.118916 -12.879507 -37.126526 -4.331450 1.231456 -11.230072 4.025275 -5.127521 -13.476436 13.583345 8.074705 30.110782 -2.563448 3.842213 33.107622 -14.693758 -5.929862 16.458934 -7.380771 3.232770 7.679327 19.983435 
-1.955283 0.281954 1.022881 -175.617067 -5.803943 84.759526 3.047015 1.378807 -16.514219 -0.593923 -3.348871 2.809304 0.619472 14.786957 -6.895514 0.000000 -0.000000 0.000000 -2.944772 -7.147670 7.567567 -0.485836 6.869049 5.513039 0.987877 -12.961999 -4.566951 0.000000 -0.000000 0.000000 -1.372242 4.103381 6.423135 3.717444 -9.730134 -0.976341 3.559516 1.718738 -4.388335 0.235307 -6.808988 -6.077298 6.829540 -2.864992 14.886448 -5.196699 -29.225570 -6.141357 -12.807946 -36.577783 -4.260186 1.319084 -11.198918 4.093954 -5.418490 -13.573257 13.434870 7.993050 30.695706 -2.498470 3.598186 32.594602 -14.184039 -5.857181 16.195868 -6.560451 3.879879 7.773852 19.269011 
-1.957317 0.297774 1.023346 -177.411685 -5.203568 84.827620 3.228998 1.194199 -17.760805 -0.172469 -3.075761 1.320683 0.786805 14.724806 -7.509983 0.000000 -0.000000 0.000000 -2.465485 -7.098051 8.443827 -0.968151 7.762414 5.818038 2.102967 -12.281716 -4.931874 0.000000 -0.000000 0.000000 -1.108095 4.764275 6.580157 3.787316 -9.536136 -1.219351 3.676795 1.647961 -4.393512 0.225633 -6.395549 -5.685949 6.887984 -2.798629 14.492775 -5.191273 -29.243239 -6.563452 -13.439243 -36.250955 -3.815389 1.424545 -10.818218 4.288719 -5.326272 -13.947915 13.542898 7.669155 30.787161 -2.682670 3.586985 32.538297 -14.221515 -5.367380 16.103851 -6.024485 3.925616 7.902631 19.487937 
-1.960792 0.313127 1.023429 -179.616492 -4.724698 84.976417 3.217744 1.160393 -18.652198 0.444149 -2.441175 0.019324 0.891776 15.241099 -8.176924 0.000000 -0.000000 0.000000 -2.906891 -6.723116 9.456602 -0.424840 8.451020 5.749456 3.175409 -11.296670 -5.326333 0.000000 -0.000000 0.000000 -0.556141 5.362019 6.785015 3.423629 -9.230432 -1.591776 3.558024 1.792983 -4.264859 0.233150 -6.148091 -5.486935 6.862346 -2.762902 14.523828 -5.305821 -28.990721 -6.864413 -13.437122 -35.952130 -3.742200 1.262916 -10.959203 4.260780 -5.453357 -14.285167 13.847795 7.469123 30.948843 -2.575806 3.525359 32.798435 -14.377788 -5.304742 15.656083 -5.660069 3.846904 8.209833 20.153361 
-1.963189 0.330342 1.021963 178.628015 -4.213539 85.004301 3.419923 1.320813 -19.344731 0.573227 -2.043104 -0.278715 0.943754 14.926755 -8.584688 0.000000 -0.000000 0.000000 -3.583010 -7.346318 10.886506 0.296719 9.153617 5.283017 3.688701 -9.982353 -5.267550 0.000000 -0.000000 0.000000 -0.367572 5.931393 6.828876 3.238532 -9.170420 -1.940114 3.465777 1.729660 -4.026214 0.659843 -5.914008 -5.355875 6.437507 -2.882400 14.564477 -5.176618 -28.750196 -7.220911 -13.766496 -36.053706 -3.584097 1.734382 -10.096674 4.424366 -5.575033 -15.054403 14.176604 7.222729 31.008275 -2.698232 3.664657 33.218421 -14.122606 -5.154252 15.453247 -5.170556 4.055671 8.420443 20.392588 
-1.966261 0.347318 1.020097 176.251062 -3.463049 85.134517 4.210162 1.769185 -19.525480 0.338512 -1.925436 -0.546089 1.152824 14.929839 -9.355745 0.000000 -0.000000 0.000000 -3.361140 -7.329775 11.677197 0.102084 10.171735 5.629309 3.999348 -9.385365 -5.746699 0.000000 -0.000000 0.000000 0.088016 6.498242 6.857008 2.988556 -8.830265 -1.753301 3.225274 1.984475 -4.262887 1.068700 -5.424137 -5.414839 6.062810 -3.119445 14.523046 -5.089069 -28.361932 -7.761087 -13.378568 -35.609260 -3.362628 1.148447 -10.663952 4.319117 -4.823170 -15.016595 14.217592 7.345916 31.111061 -2.669154 2.873984 32.930248 -14.438735 -3.856763 16.442392 -4.854606 3.157094 8.544268 20.718666 
-1.970135 0.365563 1.016990 174.113375 -2.848652 85.375992 4.652879 2.078149 -19.485917 0.490418 -1.723217 -0.713961 1.408745 15.088313 -10.061246 0.000000 -0.000000 0.000000 -3.261511 -6.981421 12.482137 -0.272588 11.247196 5.801473 4.099433 -8.902694 -6.242811 0.000000 -0.000000 0.000000 0.069016 6.704221 6.687234 2.918266 -8.585255 -1.562983 3.169637 1.982335 -4.490981 1.196057 -5.113746 -5.300826 5.723382 -3.283826 14.156307 -4.820371 -27.480594 -8.114235 -13.489659 -35.235294 -3.115971 1.502291 -11.047607 4.380680 -4.806106 -15.157644 13.747282 7.148268 30.968047 -2.265115 2.582487 34.037783 -14.434959 -3.871460 16.776811 -4.280206 3.103740 8.701744 20.108351 
-1.974122 0.384628 1.013438 172.200638 -2.077463 85.572193 5.214499 2.503414 -19.123691 0.643746 -1.192950 -0.659036 2.125830 15.483698 -10.433399 0.000000 -0.000000 0.000000 -3.807671 -6.704763 13.207780 0.685698 11.854165 6.482334 4.415295 -7.642059 -6.411396 0.000000 -0.000000 0.000000 -0.169467 6.740353 6.449091 3.001400 -8.421953 -1.469399 3.058734 1.986357 -4.610089 1.397854 -4.821433 -5.495470 5.298917 -3.316629 14.251521 -4.033009 -26.759508 -8.257621 -13.661440 -35.043073 -3.285788 1.697422 -11.058747 4.479669 -4.820177 -14.991084 14.249239 6.800011 30.941098 -2.261050 2.501915 35.180527 -14.626738 -3.661288 16.667272 -3.825344 3.209894 8.801761 20.437640 
